<?xml version="1.0" standalone="no"?>
<!DOCTYPE svg PUBLIC "-//W3C//DTD SVG 20010904//EN"
 "http://www.w3.org/TR/2001/REC-SVG-20010904/DTD/svg10.dtd">
<svg version="1.0" xmlns="http://www.w3.org/2000/svg"
 width="280.000000pt" height="280.000000pt" viewBox="0 0 280.000000 280.000000"
 preserveAspectRatio="xMidYMid meet">
<metadata>
Created by potrace 1.11, written by Peter Selinger 2001-2013
</metadata>
<g transform="translate(0.000000,280.000000) scale(0.100000,-0.100000)"
fill="#000000" stroke="none">
<path d="M1025 2740 c-130 -35 -231 -57 -300 -65 -27 -3 -59 -8 -70 -10 -11
-2 -60 -7 -110 -10 -94 -6 -155 -20 -155 -36 0 -12 31 -18 120 -23 108 -6 143
-23 156 -77 5 -18 14 -553 14 -767 0 -20 4 -23 28 -18 15 3 47 8 72 11 49 7
240 50 280 64 14 5 45 16 70 25 l46 16 -2 432 c-1 415 -6 489 -31 487 -5 0
-57 -13 -118 -29z"/>
<path d="M1800 1766 c0 -3 18 -23 41 -43 158 -143 128 -437 -53 -526 -29 -14
-64 -29 -78 -31 l-25 -5 -1 -503 c-1 -366 -4 -510 -13 -526 -14 -26 -37 -33
-127 -35 -56 -2 -69 -5 -72 -19 -2 -9 5 -21 15 -25 10 -5 223 -9 473 -9 l455
1 3 22 c3 20 -1 23 -30 24 -128 3 -162 13 -181 51 -14 29 -16 100 -17 563 0
292 -3 559 -6 595 -14 192 -98 352 -220 417 -33 18 -71 34 -84 36 -14 3 -37 8
-52 12 -16 4 -28 4 -28 1z"/>
<path d="M1090 1734 c-90 -30 -264 -72 -323 -79 -42 -5 -216 -15 -332 -18 -54
-2 -60 -4 -63 -24 -2 -16 2 -23 15 -24 175 -11 250 -34 278 -88 12 -25 14
-120 12 -693 -2 -517 -5 -668 -15 -685 -16 -28 -36 -34 -142 -37 -71 -2 -85
-5 -88 -19 -3 -16 31 -17 472 -17 469 0 476 0 476 20 0 11 -3 20 -7 21 -5 0
-34 2 -65 4 -32 2 -70 10 -85 17 l-28 13 -3 574 c-3 654 -11 588 94 749 75
115 128 165 169 157 11 -2 23 -4 28 -4 14 -2 7 -39 -18 -82 -62 -112 -27 -247
73 -280 90 -30 190 -15 249 36 117 100 113 305 -6 413 -58 53 -99 67 -206 67
-90 0 -105 -3 -155 -28 -84 -43 -144 -121 -211 -271 -15 -32 -29 -54 -31 -50
-2 5 -4 87 -4 182 1 94 -1 172 -4 171 -3 -1 -39 -12 -80 -25z"/>
</g>
</svg>
