<svg xmlns="http://www.w3.org/2000/svg" width="39.25" height="29.625" viewBox="0 0 39.25 29.625"><defs><style>.cls-1{fill-rule:evenodd}</style></defs><path id="Email" class="cls-1" d="M819.658 916.746h-39.243v-29.622h39.251v29.421c-.001.069-.005.135-.008.201zm-4.444-26.858H785.1c.057.06.1.1.139.146l13.561 13.731a1.855 1.855 0 0 0 2.638 0l13.663-13.759c.032-.03.065-.066.113-.118zm-30.126 24.095H815l-9.865-10.1a.838.838 0 0 1-.1.153q-.844.858-1.694 1.71a4.6 4.6 0 0 1-6.081.327c-.452-.371-.842-.819-1.262-1.229-.332-.324-.667-.645-1.011-.977q-4.921 5.033-9.899 10.116zm-1.911-1.97l9.91-10.125-9.91-10.035v20.16zm33.738 0v-19.936l-9.816 9.886z" transform="translate(-780.406 -887.125)"/></svg>