<svg xmlns="http://www.w3.org/2000/svg" width="29.468" height="29.656" viewBox="0 0 29.468 29.656"><defs><style>.cls-1{fill-rule:evenodd}</style></defs><path id="Facebook_Messenger" data-name="Facebook Messenger" class="cls-1" d="M759.821 900.338v1.02a1.689 1.689 0 0 0-.021.333c0 .079 0 .158-.009.237a12.982 12.982 0 0 1-2.476 6.594 14.243 14.243 0 0 1-4.576 4.06 15.377 15.377 0 0 1-7.194 1.98 15.164 15.164 0 0 1-1.906-.063q-.756-.071-1.5-.211-.594-.113-1.176-.272a.168.168 0 0 0-.157.018.63.63 0 0 1-.072.04l-4.742 2.618a.212.212 0 0 1-.117.049.448.448 0 0 1-.01-.154v-4.908a.261.261 0 0 0-.115-.235 13.8 13.8 0 0 1-4.213-5.241 12.76 12.76 0 0 1-.989-3.229 13.051 13.051 0 0 1-.17-1.685v-.836a13.606 13.606 0 0 1 .126-1.439 12.579 12.579 0 0 1 .651-2.591 13.577 13.577 0 0 1 3.857-5.573 14.794 14.794 0 0 1 4.851-2.833 15.466 15.466 0 0 1 3.021-.741 16.408 16.408 0 0 1 1.758-.149h.927q.4.017.8.046a15.431 15.431 0 0 1 5.031 1.263 14.7 14.7 0 0 1 4.2 2.781 13.5 13.5 0 0 1 3.4 5.074 12.281 12.281 0 0 1 .8 3.713 1.621 1.621 0 0 0 .021.334zm-24.26 5.213a.327.327 0 0 0 .13-.057l6.99-3.843c.027-.015.056-.029.083-.046a.064.064 0 0 1 .093.017c.023.026.049.051.073.077l2.708 2.906.84.9c.1.1.08.105.175 0l7.835-8.368a.3.3 0 0 0 .08-.107c-.054.028-.092.047-.128.067l-6.918 3.851c-.16.089-.11.1-.239-.04q-1.823-1.906-3.643-3.815c-.1-.107-.082-.108-.185 0l-1.993 2.129-5.818 6.214a.3.3 0 0 0-.083.115zm-5.223-5.1h.038v.836h-.04v-.83zm15.228-13.35a.148.148 0 0 0 0 .021h-.926a.148.148 0 0 0 0-.021h.925zM759.8 900a.071.071 0 0 1 .02 0v.332a1.621 1.621 0 0 1-.02-.332zm.02 1.686h-.02a1.689 1.689 0 0 1 .021-.333v.332z" transform="translate(-730.344 -887.094)"/></svg>