<svg xmlns="http://www.w3.org/2000/svg" width="29.624" height="29.625" viewBox="0 0 29.624 29.625"><defs><style>.cls-1{fill-rule:evenodd}</style></defs><path id="Facebook" class="cls-1" d="M610.668 887.471a1.7 1.7 0 0 0-.985-.349h-26.1a1.674 1.674 0 0 0-1.858 1.271.257.257 0 0 1-.042.053v26.978a5.549 5.549 0 0 0 .254.547 1.571 1.571 0 0 0 .861.686c.072.025.14.061.21.093h14.483c.007-.086.019-.172.019-.258v-11.2h-3.845V900.8h3.585c.213 0 .264-.066.264-.27 0-1.23-.028-2.462.033-3.69a5.309 5.309 0 0 1 1.964-4.084 5.22 5.22 0 0 1 2.679-1.09 19.967 19.967 0 0 1 4.364.095.234.234 0 0 1 .149.174c.009 1.214 0 2.429.009 3.643 0 .169-.08.193-.219.192-.663 0-1.325-.014-1.987 0a6.074 6.074 0 0 0-1.078.112 1.455 1.455 0 0 0-1.245 1.381c-.042.391-.046.787-.05 1.181-.008.67 0 1.34 0 2.011 0 .377-.039.335.347.335h4.071c-.029.253-.05.469-.078.685-.152 1.18-.31 2.359-.452 3.54a.241.241 0 0 1-.29.264c-1.1-.009-2.193 0-3.289 0h-.311v11.471h7.809a1.815 1.815 0 0 0 1.043-.676 7.057 7.057 0 0 0 .33-.7v-26.881a1.954 1.954 0 0 0-.645-1.022z" transform="translate(-581.688 -887.125)"/></svg>