<svg xmlns="http://www.w3.org/2000/svg" width="29.656" height="29.625" viewBox="0 0 29.656 29.625"><defs><style>.cls-1{fill-rule:evenodd}</style></defs><path id="Instagram" class="cls-1" d="M645.864 886.74c2.011.035 4.022.048 6.032.111a9.351 9.351 0 0 1 5.265 1.545 7.76 7.76 0 0 1 3.218 5.3 29.853 29.853 0 0 1 .263 4.846c.008 2.561.018 5.123-.022 7.683a14.418 14.418 0 0 1-.608 4.662 7.568 7.568 0 0 1-5.95 5.136 25.582 25.582 0 0 1-5.231.332c-2.553.011-5.106.018-7.658-.021a14.447 14.447 0 0 1-4.666-.609 7.564 7.564 0 0 1-5.141-5.944 25.472 25.472 0 0 1-.331-5.227c-.012-2.55-.019-5.1.021-7.651a14.4 14.4 0 0 1 .609-4.662 7.567 7.567 0 0 1 5.949-5.135 26.623 26.623 0 0 1 5.232-.333c1-.013 2.011 0 3.017 0l.001-.033zm12.151 14.833h-.043c0-1.243.032-2.487-.01-3.728a36.343 36.343 0 0 0-.261-3.807 4.978 4.978 0 0 0-4.037-4.278 19.826 19.826 0 0 0-4.1-.306q-3.73-.053-7.463 0a27.054 27.054 0 0 0-3.777.26 4.9 4.9 0 0 0-4.251 3.822 14.678 14.678 0 0 0-.342 3.6 195.54 195.54 0 0 0-.029 6.127c.024 1.8.035 3.611.207 5.4a5.009 5.009 0 0 0 4.116 4.709 19.756 19.756 0 0 0 4.1.3q3.714.052 7.431 0a27.208 27.208 0 0 0 3.809-.263 4.824 4.824 0 0 0 4.186-3.681 9.494 9.494 0 0 0 .322-2.135c.08-2.002.099-4.011.142-6.02zm-12.174 7.588a7.6 7.6 0 1 1 7.608-7.517 7.569 7.569 0 0 1-7.608 7.517zm.016-12.526a4.931 4.931 0 1 0 4.916 4.941 4.957 4.957 0 0 0-4.916-4.941zm7.889-4.74a1.735 1.735 0 0 1 1.771 1.782 1.784 1.784 0 0 1-1.76 1.782 1.817 1.817 0 0 1-1.806-1.785 1.784 1.784 0 0 1 1.795-1.774z" transform="translate(-631 -886.75)"/></svg>