<svg xmlns="http://www.w3.org/2000/svg" width="29.626" height="29.625" viewBox="0 0 29.626 29.625"><defs><style>.cls-1{fill-rule:evenodd}</style></defs><path id="LinkedIn" class="cls-1" d="M692.369 901.873v0zm-9.4 14.839h25.406c.051 0 .1.007.154.01a2.154 2.154 0 0 0 1.918-2.033c0-.091.006-.181.006-.272v-25a2.162 2.162 0 0 0-.891-1.88 2.118 2.118 0 0 0-1.269-.414h-25.321a2.134 2.134 0 0 0-2.14 2.073v25.213a2.229 2.229 0 0 0 .885 1.907 2.2 2.2 0 0 0 .86.385.124.124 0 0 1 .118.05h.078a.227.227 0 0 1 .192-.039zm6.428-4.358q-1.988-.012-3.974 0c-.148 0-.2-.033-.2-.192q.006-6.876 0-13.751c0-.161.056-.191.2-.191 1.325 0 2.65.007 3.974 0 .183 0 .208.064.208.224v13.693c-.005.163-.034.218-.212.217zm3.22-14.137q1.861.012 3.723 0c.19 0 .237.057.233.24-.012.523 0 1.047 0 1.571 0 .041-.021.1.038.116s.07-.043.092-.08a4.4 4.4 0 0 1 3.138-2.092 6.327 6.327 0 0 1 3.41.318 3.914 3.914 0 0 1 2.326 2.5 10.143 10.143 0 0 1 .5 3.378c.012 2.657 0 5.314.012 7.971 0 .165-.033.22-.211.219q-2-.012-3.993 0c-.163 0-.2-.047-.2-.207q.006-3.656 0-7.312a5.27 5.27 0 0 0-.258-1.756 1.872 1.872 0 0 0-1.764-1.338 3.36 3.36 0 0 0-1.134.094 2.146 2.146 0 0 0-1.515 1.5 6.209 6.209 0 0 0-.261 1.99q-.008 3.394 0 6.788c0 .205-.06.243-.25.242-1.292-.008-2.585 0-3.877 0-.245 0-.245 0-.245-.256v-6.808-3.413-3.414c-.018-.212.041-.252.232-.251zm-5.168-7.024a2.555 2.555 0 1 1-2.57 2.533 2.573 2.573 0 0 1 2.566-2.533zm20.926 25.518h-25.41a.227.227 0 0 0-.2.038h25.748a.032.032 0 0 0 .013-.029c-.052-.002-.104-.009-.155-.009z" transform="translate(-680.812 -887.125)"/></svg>