<svg xmlns="http://www.w3.org/2000/svg" viewBox="0 0 42.09 34.2"><defs><style>.cls-1{fill:#231f20}</style></defs><title>Twitter</title><g id="Layer_2" data-name="Layer 2"><path class="cls-1" d="M42.09 4a17.2 17.2 0 0 1-5 1.36A8.67 8.67 0 0 0 40.93.63a17.28 17.28 0 0 1-5.48 2.09 8.64 8.64 0 0 0-14.72 7.88 24.51 24.51 0 0 1-17.8-9A8.64 8.64 0 0 0 5.6 13.11 8.59 8.59 0 0 1 1.69 12v.11a8.64 8.64 0 0 0 6.93 8.49 8.63 8.63 0 0 1-3.9.15 8.64 8.64 0 0 0 8.06 6 17.31 17.31 0 0 1-10.72 3.7A17.62 17.62 0 0 1 0 30.32a24.44 24.44 0 0 0 13.24 3.88C29.12 34.2 37.8 21 37.8 9.64V8.52A17.51 17.51 0 0 0 42.09 4z" id="RAW_ICONS_-_SQUARE_ROUNDED_CIRCLE" data-name="RAW ICONS - SQUARE / ROUNDED / CIRCLE"/></g></svg>