<svg xmlns="http://www.w3.org/2000/svg" width="39.25" height="29.625" viewBox="0 0 39.25 29.625">
  <metadata><?xpacket begin="﻿" id="W5M0MpCehiHzreSzNTczkc9d"?>
<x:xmpmeta xmlns:x="adobe:ns:meta/" x:xmptk="Adobe XMP Core 5.6-c138 79.159824, 2016/09/14-01:09:01        ">
   <rdf:RDF xmlns:rdf="http://www.w3.org/1999/02/22-rdf-syntax-ns#">
      <rdf:Description rdf:about=""/>
   </rdf:RDF>
</x:xmpmeta>
                                                                                                    
                                                                                                    
                                                                                                    
                                                                                                    
                                                                                                    
                                                                                                    
                                                                                                    
                                                                                                    
                                                                                                    
                                                                                                    
                                                                                                    
                                                                                                    
                                                                                                    
                                                                                                    
                                                                                                    
                                                                                                    
                                                                                                    
                                                                                                    
                                                                                                    
                                                                                                    
                           
<?xpacket end="w"?></metadata>
<defs>
    <style>
      .cls-1 {
        fill-rule: evenodd;
      }
    </style>
  </defs>
  <path id="Email" class="cls-1" d="M819.658,916.746H780.415V887.124l0.168,0h39.083v0.23q0,14.6,0,29.191C819.665,916.614,819.661,916.68,819.658,916.746Zm-4.444-26.858H785.1c0.057,0.06.1,0.1,0.139,0.146L798.8,903.765a1.855,1.855,0,0,0,2.638,0q6.831-6.879,13.663-13.759C815.133,889.976,815.166,889.94,815.214,889.888Zm-30.126,24.095H815l-9.865-10.1a0.838,0.838,0,0,1-.1.153q-0.844.858-1.694,1.71a4.6,4.6,0,0,1-6.081.327c-0.452-.371-0.842-0.819-1.262-1.229-0.332-.324-0.667-0.645-1.011-0.977Q790.066,908.9,785.088,913.983Zm-1.911-1.97,9.91-10.125-9.91-10.035v20.16Zm33.738,0V892.077l-9.816,9.886Z" transform="translate(-780.406 -887.125)"/>
</svg>
