<svg xmlns="http://www.w3.org/2000/svg" width="29.624" height="29.625" viewBox="0 0 29.624 29.625">
  <metadata><?xpacket begin="﻿" id="W5M0MpCehiHzreSzNTczkc9d"?>
<x:xmpmeta xmlns:x="adobe:ns:meta/" x:xmptk="Adobe XMP Core 5.6-c138 79.159824, 2016/09/14-01:09:01        ">
   <rdf:RDF xmlns:rdf="http://www.w3.org/1999/02/22-rdf-syntax-ns#">
      <rdf:Description rdf:about=""/>
   </rdf:RDF>
</x:xmpmeta>
                                                                                                    
                                                                                                    
                                                                                                    
                                                                                                    
                                                                                                    
                                                                                                    
                                                                                                    
                                                                                                    
                                                                                                    
                                                                                                    
                                                                                                    
                                                                                                    
                                                                                                    
                                                                                                    
                                                                                                    
                                                                                                    
                                                                                                    
                                                                                                    
                                                                                                    
                                                                                                    
                           
<?xpacket end="w"?></metadata>
<defs>
    <style>
      .cls-1 {
        fill-rule: evenodd;
      }
    </style>
  </defs>
  <path id="Facebook" class="cls-1" d="M610.668,887.471a1.7,1.7,0,0,0-.985-0.349h-26.1a1.674,1.674,0,0,0-1.858,1.271,0.257,0.257,0,0,1-.042.053v26.978a5.549,5.549,0,0,0,.254.547,1.571,1.571,0,0,0,.861.686c0.072,0.025.14,0.061,0.21,0.093h14.483c0.007-.086.019-0.172,0.019-0.258q0-5.466,0-10.931v-0.269h-3.845V900.8h0.273c1.1,0,2.208,0,3.312,0,0.213,0,.264-0.066.264-0.27,0-1.23-.028-2.462.033-3.69a5.309,5.309,0,0,1,1.964-4.084,5.22,5.22,0,0,1,2.679-1.09,19.967,19.967,0,0,1,4.364.095,0.234,0.234,0,0,1,.149.174c0.009,1.214,0,2.429.009,3.643,0,0.169-.08.193-0.219,0.192-0.663,0-1.325-.014-1.987,0a6.074,6.074,0,0,0-1.078.112,1.455,1.455,0,0,0-1.245,1.381c-0.042.391-.046,0.787-0.05,1.181-0.008.67,0,1.34,0,2.011,0,0.377-.039.335,0.347,0.335q1.881,0,3.762,0h0.309c-0.029.253-.05,0.469-0.078,0.685-0.152,1.18-.31,2.359-0.452,3.54a0.241,0.241,0,0,1-.29.264c-1.1-.009-2.193,0-3.289,0h-0.311V916.75h7.809a1.815,1.815,0,0,0,1.043-.676,7.057,7.057,0,0,0,.33-0.7V888.493A1.954,1.954,0,0,0,610.668,887.471Z" transform="translate(-581.688 -887.125)"/>
</svg>
