<svg xmlns="http://www.w3.org/2000/svg" width="29.626" height="29.625" viewBox="0 0 29.626 29.625">
  <metadata><?xpacket begin="﻿" id="W5M0MpCehiHzreSzNTczkc9d"?>
<x:xmpmeta xmlns:x="adobe:ns:meta/" x:xmptk="Adobe XMP Core 5.6-c138 79.159824, 2016/09/14-01:09:01        ">
   <rdf:RDF xmlns:rdf="http://www.w3.org/1999/02/22-rdf-syntax-ns#">
      <rdf:Description rdf:about=""/>
   </rdf:RDF>
</x:xmpmeta>
                                                                                                    
                                                                                                    
                                                                                                    
                                                                                                    
                                                                                                    
                                                                                                    
                                                                                                    
                                                                                                    
                                                                                                    
                                                                                                    
                                                                                                    
                                                                                                    
                                                                                                    
                                                                                                    
                                                                                                    
                                                                                                    
                                                                                                    
                                                                                                    
                                                                                                    
                                                                                                    
                           
<?xpacket end="w"?></metadata>
<defs>
    <style>
      .cls-1 {
        fill-rule: evenodd;
      }
    </style>
  </defs>
  <path id="LinkedIn" class="cls-1" d="M692.369,901.873q0,1.707,0,3.413v0Q692.369,903.581,692.369,901.873Zm-9.4,14.839h25.406c0.051,0,.1.007,0.154,0.01a2.154,2.154,0,0,0,1.918-2.033c0-.091.006-0.181,0.006-0.272q0-12.5,0-25a2.162,2.162,0,0,0-.891-1.88,2.118,2.118,0,0,0-1.269-.414q-12.662,0-25.321,0a2.134,2.134,0,0,0-2.14,2.073c0,0.077,0,.155,0,0.232q0,12.49,0,24.981a2.229,2.229,0,0,0,.885,1.907,2.2,2.2,0,0,0,.86.385,0.124,0.124,0,0,1,.118.05h0.078A0.227,0.227,0,0,1,682.965,916.712Zm6.428-4.358q-1.988-.012-3.974,0c-0.148,0-.2-0.033-0.2-0.192q0.006-6.876,0-13.751c0-.161.056-0.191,0.2-0.191,1.325,0,2.65.007,3.974,0,0.183,0,.208.064,0.208,0.224q0,1.716,0,3.433v6.846q0,1.707,0,3.414C689.6,912.3,689.571,912.355,689.393,912.354Zm3.22-14.137q1.861,0.012,3.723,0c0.19,0,.237.057,0.233,0.24-0.012.523,0,1.047,0,1.571,0,0.041-.021.1,0.038,0.116s0.07-.043.092-0.08a4.4,4.4,0,0,1,3.138-2.092,6.327,6.327,0,0,1,3.41.318,3.914,3.914,0,0,1,2.326,2.5,10.143,10.143,0,0,1,.5,3.378c0.012,2.657,0,5.314.012,7.971,0,0.165-.033.22-0.211,0.219q-2-.012-3.993,0c-0.163,0-.2-0.047-0.2-0.207q0.006-3.656,0-7.312a5.27,5.27,0,0,0-.258-1.756,1.872,1.872,0,0,0-1.764-1.338,3.36,3.36,0,0,0-1.134.094,2.146,2.146,0,0,0-1.515,1.5,6.209,6.209,0,0,0-.261,1.99q-0.008,3.394,0,6.788c0,0.205-.06.243-0.25,0.242-1.292-.008-2.585,0-3.877,0-0.245,0-.245,0-0.245-0.256v-6.808q0-1.705,0-3.413t0-3.414C692.363,898.256,692.422,898.216,692.613,898.217Zm-5.168-7.024a2.555,2.555,0,1,1-2.57,2.533A2.573,2.573,0,0,1,687.445,891.193Zm20.926,25.518H682.965a0.227,0.227,0,0,0-.2.038h25.748a0.032,0.032,0,0,0,.013-0.029C708.474,916.718,708.422,916.711,708.371,916.711Z" transform="translate(-680.812 -887.125)"/>
</svg>
