<svg xmlns="http://www.w3.org/2000/svg" width="29.468" height="29.656" viewBox="0 0 29.468 29.656">
  <metadata><?xpacket begin="﻿" id="W5M0MpCehiHzreSzNTczkc9d"?>
<x:xmpmeta xmlns:x="adobe:ns:meta/" x:xmptk="Adobe XMP Core 5.6-c138 79.159824, 2016/09/14-01:09:01        ">
   <rdf:RDF xmlns:rdf="http://www.w3.org/1999/02/22-rdf-syntax-ns#">
      <rdf:Description rdf:about=""/>
   </rdf:RDF>
</x:xmpmeta>
                                                                                                    
                                                                                                    
                                                                                                    
                                                                                                    
                                                                                                    
                                                                                                    
                                                                                                    
                                                                                                    
                                                                                                    
                                                                                                    
                                                                                                    
                                                                                                    
                                                                                                    
                                                                                                    
                                                                                                    
                                                                                                    
                                                                                                    
                                                                                                    
                                                                                                    
                                                                                                    
                           
<?xpacket end="w"?></metadata>
<defs>
    <style>
      .cls-1 {
        fill-rule: evenodd;
      }
    </style>
  </defs>
  <path id="Facebook_Messenger" data-name="Facebook Messenger" class="cls-1" d="M759.821,900.338v1.02a1.689,1.689,0,0,0-.021.333c0,0.079,0,.158-0.009.237a12.982,12.982,0,0,1-2.476,6.594,14.243,14.243,0,0,1-4.576,4.06,15.377,15.377,0,0,1-7.194,1.98,15.164,15.164,0,0,1-1.906-.063q-0.756-.071-1.5-0.211-0.594-.113-1.176-0.272a0.168,0.168,0,0,0-.157.018,0.63,0.63,0,0,1-.072.04l-4.742,2.618a0.212,0.212,0,0,1-.117.049,0.448,0.448,0,0,1-.01-0.154q0-2.454,0-4.908a0.261,0.261,0,0,0-.115-0.235,13.8,13.8,0,0,1-4.213-5.241,12.76,12.76,0,0,1-.989-3.229,13.051,13.051,0,0,1-.17-1.685c0-.279,0-0.557,0-0.836a13.606,13.606,0,0,1,.126-1.439,12.579,12.579,0,0,1,.651-2.591,13.577,13.577,0,0,1,3.857-5.573,14.794,14.794,0,0,1,4.851-2.833,15.466,15.466,0,0,1,3.021-.741,16.408,16.408,0,0,1,1.758-.149h0.927q0.4,0.017.8,0.046a15.431,15.431,0,0,1,5.031,1.263,14.7,14.7,0,0,1,4.2,2.781,13.5,13.5,0,0,1,3.4,5.074,12.281,12.281,0,0,1,.8,3.713A1.621,1.621,0,0,0,759.821,900.338Zm-24.26,5.213a0.327,0.327,0,0,0,.13-0.057l6.99-3.843c0.027-.015.056-0.029,0.083-0.046a0.064,0.064,0,0,1,.093.017c0.023,0.026.049,0.051,0.073,0.077l2.708,2.906c0.28,0.3.559,0.6,0.84,0.9,0.1,0.1.08,0.105,0.175,0l7.835-8.368a0.3,0.3,0,0,0,.08-0.107c-0.054.028-.092,0.047-0.128,0.067l-6.918,3.851c-0.16.089-.11,0.1-0.239-0.04q-1.823-1.906-3.643-3.815c-0.1-.107-0.082-0.108-0.185,0l-1.993,2.129q-2.91,3.107-5.818,6.214A0.3,0.3,0,0,0,735.561,905.551Zm-5.223-5.1,0.038,0c0,0.279,0,.557,0,0.836l-0.04,0v-0.83Zm15.228-13.35a0.148,0.148,0,0,0,0,.021H744.64a0.148,0.148,0,0,0,0-.021h0.925ZM759.8,900a0.071,0.071,0,0,1,.02,0v0.332A1.621,1.621,0,0,1,759.8,900Zm0.02,1.686H759.8a1.689,1.689,0,0,1,.021-0.333v0.332Z" transform="translate(-730.344 -887.094)"/>
</svg>
